<?xml version="1.0" encoding="UTF-8"?>
<svg xmlns="http://www.w3.org/2000/svg" version="1.1" viewBox="0 0 500 500">
  <!-- Generator: Adobe Illustrator 28.7.3, SVG Export Plug-In . SVG Version: 1.2.0 Build 164)  -->
  <g>
    <g id="_图层_1" data-name="图层_1">
      <g>
        <path d="M349.94,361h-4.43c-14.11,0-28.21-.01-42.32.03-1.23,0-1.57-.25-1.53-1.57.14-4.72,1.07-9.34,1.66-13.99.51-4.03,3.13-6.8,5.86-9.45,2.58-2.51,5.83-3.97,8.97-5.66,3.95-2.12,8.1-3.46,12.4-4.51q2.88-.71,2.72-3.7c-.08-1.46-.13-2.92-.28-4.37-.24-2.35-.51-2.62-2.82-2.17-2.59.51-5.15,1.19-7.7,1.87-1.8.48-3.56,1.13-5.36,1.66-9.39,2.74-16.72,8.22-21.57,16.72-2.32,4.06-2.97,8.66-3.22,13.31-.13,2.46-.45,4.91-.65,7.36-.07.82-.09,1.65-.04,2.46.12,2.02.14,2.02-1.96,2.02-10.23,0-20.45-.02-30.68.02-1.23,0-1.74-.21-1.8-1.59-.16-3.22-1.39-6.11-3.2-8.75-1.46-2.14-3.82-2.6-6.09-2.96-1.69-.27-1.39-1.35-1.5-2.39-.12-1.09.41-1.5,1.44-1.72,12.53-2.67,25.05-5.39,37.57-8.09,1.51-.33,3.02-.67,4.54-.96,1.04-.2,1.82-.63,2.27-1.69.33-.79.9-1.47,1.35-2.21.16-.26.43-.57.23-.87-.22-.33-.59-.1-.88-.04-3.74.79-7.5,1.54-11.23,2.39-11.97,2.72-23.97,5.25-36.04,7.52-3.5.66-6.7-.25-10-.83-12.13-2.13-24.12-4.95-36.15-7.58-.4-.09-.8-.17-1.21-.25-.7-.14-.99.07-.63.79.08.16.24.32.25.48.26,2.85,2.26,3.41,4.65,3.91,12.41,2.59,24.76,5.48,37.26,7.6,2.45.41,2.43.45,2.56,2.65.06,1.01-.27,1.44-1.25,1.71-1.31.36-2.64.69-3.88,1.33-1.27.66-1.89,1.64-1.94,3.05-.09,2.42-.46,4.82-.27,7.25.07.93-.22,1.27-1.21,1.27-12.6-.02-25.2-.02-37.8.02-1.13,0-1.27-.35-1.08-1.35,1.16-5.88,1.06-11.82.29-17.71-.53-4.07-1.79-8.03-3.85-11.62-1.83-3.2-4.73-5.4-7.8-7.32-1.66-1.04-3.37-2.03-5.16-2.81-5.16-2.24-10.63-3.11-16.21-3.38-4.6-.22-9.2-.24-13.81-.09-4.35.14-6.06,2.75-5.56,6.77.16,1.27,1.33,1.67,2.47,1.75,2.27.17,4.55.36,6.83.36,7.84,0,14.95,2.49,21.74,6.15,1,.54,1.95,1.18,2.92,1.76,7.74,4.62,9.57,11.8,8.61,20.12-.23,2.01-.19,4.01-.21,6.01-.01.96-.21,1.35-1.29,1.35-15.2-.04-30.41.06-45.61-.05-18.94-.15-37.89-.03-56.83-.08-2.74,0-5.48.02-8.21.13-1.1.05-1.72-.35-2.31-1.24-3.37-5.08-6.11-10.47-8.21-16.19-.21-.58-.2-1.17-.2-1.76,0-14.84,0-29.67,0-44.51,0-2.53,1.4-4.59,2.41-6.76,4.57-9.85,11.6-17.61,20.55-23.65,4.97-3.35,10.31-6,15.95-8.08,7.32-2.7,14.87-4.38,22.59-5.3,2.3-.28,4.64-.3,6.97-.38.88-.03,1.22-.3,1.06-1.24-.16-.94-.17-1.91-.19-2.87-.02-.84-.35-1.03-1.12-.76-1.33.47-2.68.9-4.03,1.32-1.31.41-2.62.78-4.03.51-1.38-.26-2.37-1-3.16-2.17-2.15-3.22-2.91-6.83-3.23-10.6-.41-4.84-.05-9.67.17-14.5.07-1.6.05-1.58-1.45-1.25-1.26.27-2.45-.02-3.6-.53-4.2-1.89-7.5-4.9-9.98-8.69-1.75-2.67-1.75-4.77.16-6.9.41-.45.63-1.11.81-1.71,2.23-7.2,6.16-13.52,10.36-19.65,6.95-10.14,15.45-18.89,24.74-26.9,10.26-8.84,21.29-16.57,33.41-22.65,7.58-3.8,15.57-6.73,23.25-10.27,5.65-2.6,11.29-2.89,17.21-2.34,4.84.45,9.47,1.89,14.16,3.02,1.51.36,2.84,1.09,3.43,2.65.33.88.58.73,1.04.1,1.13-1.54,2.32-3.04,3.47-4.57,2.72-3.62,6.24-6.37,9.83-9.04.85-.63,1.87-.93,2.91-1.15,3.66-.78,7.33-1.35,11.11-1.33,5.67.04,10.82,1.97,15.97,3.99,6.63,2.61,13.01,5.77,19.14,9.41,5.21,3.09,10.56,5.99,15.37,9.69,3.93,3.02,7.56,6.43,11.34,9.66,5.83,4.98,11.46,10.17,16.49,15.98,6.17,7.13,10.45,15.34,13.67,24.15,2.43,6.66,4.38,13.44,5.38,20.48.5,3.53.75,7.07,1,10.62.15,2.09-.76,3.91-1.45,5.79-1.69,4.57-3.92,8.83-7.36,12.37-1.07,1.1-2.27,1.77-3.78,1.99-1.97.28-2.12.69-1.75,2.62,1.66,8.78,2.92,17.56.56,26.44-1.96,7.39-5.37,14.02-10.13,19.97-1.31,1.63-2.66,3.25-4.3,4.59-.79.65-.47.99.29,1.16,3.99.88,7.66,2.64,11.48,4.01,3.53,1.27,3.35,3.25,3.04,6.04-.29,2.56-1.43,4.75-2.51,6.99-.65,1.35-1.57,2.48-2.67,3.43-.84.72-.88,1.39-.58,2.39,1.32,4.44,1.2,9.02,1.05,13.59-.03,1.08-.61,2.05-1.54,2.43-1.28.52-.87,1.08-.36,1.81,2.19,3.09,4.15,6.34,5.7,9.79,2.87,6.41,5.63,12.87,8.43,19.31.07.16.06.35.11.65ZM229,131.35c-1.78,2.19-4.01,2.13-6.39,1.53-5.13-1.29-10.21-2.8-15.57-2.81-2.01,0-4.08-.26-5.95.59-3.9,1.78-8.01,3.05-11.9,4.83-4.92,2.26-10.03,4.14-14.7,6.94-5.07,3.04-10.36,5.69-15.25,9.06-4.56,3.14-8.95,6.48-13.24,9.95-1.55,1.26-3.03,2.61-4.59,3.85-1.52,1.2-2.62,2.82-4.2,3.98-2.12,1.55-3.67,3.71-5.51,5.57-2.06,2.08-3.97,4.32-5.87,6.56-3,3.54-5.92,7.14-8.27,11.09-2.96,4.98-6.01,9.98-7.56,15.68-.2.72-.13,1.17.34,1.71,1.51,1.75,3.33,3.05,5.42,4.06,1.13.54,1.28.2,1.36-.83.26-3.46.45-6.93,1.58-10.25.63-1.84,1.56-3.5,3.26-4.59,2.09-1.34,4.38-1.08,5.81.64,1.48,1.77,1.35,3.91-.42,5.77-.61.64-.83,1.39-.96,2.21-1.37,8.45-1.55,16.98-1.86,25.5-.09,2.37.09,4.74.54,7.08.33,1.69.36,1.74,2.03,1.19,1.21-.39,2.42-.77,3.61-1.26,1.89-.79,3.83-1.52,5.83-1.95,2.85-.61,5.46-1.71,8.07-2.93,1.04-.49,1.25-1.13,1.14-2.14-.6-5.42-.34-10.84-.1-16.27.41-9.29,1.49-18.46,4.56-27.3.85-2.45,1.72-4.92,3.09-7.14,1.38-2.24,3.97-2.94,6.03-1.73,1.93,1.13,2.45,3.61,1.25,5.92-.36.69-.72,1.37-1.04,2.08-1.83,4.11-3.04,8.42-3.65,12.85-.47,3.41-1.01,6.81-1.17,10.28-.13,2.89-.37,5.81-.57,8.71-.37,5.43.02,10.85.77,16.24.37,2.61.71,5.24,1.65,7.74.42,1.14,1.08,1.85,2.44,1.99,3.85.38,7.64.17,11.42-.6,2.6-.53,5.19-1.01,7.6-2.21.63-.31.93-.61.77-1.34-.93-4.21-.5-8.44-.3-12.68.18-3.89,1.22-7.55,2.81-11.07,1.19-2.64,3.52-3.53,6.09-2.4,1.9.84,2.63,3.31,1.69,5.69-.5,1.27-.96,2.56-1.42,3.85-.13.38-.38.86-.09,1.17.31.33.76,0,1.13-.11,3.77-1.19,7.26-2.93,10.49-5.21,2.22-1.57,2.23-1.59.4-3.46-1.6-1.64-1.82-4.09-.5-5.72,1.49-1.84,3.83-2.16,5.88-.82,1.45.95,2.87,1.94,4.37,2.81,2.37,1.38,4.65,2.97,7.39,3.86,0-.4.02-.67,0-.93-.31-4.23-.63-8.47-.46-12.71.49-12.54,1.47-25.04,4.11-37.35,1.09-5.1,2.51-10.09,4.97-14.73,1.45-2.75,3.23-5.29,5.4-7.52,1.9-1.95,4.59-1.99,6.3-.14,1.35,1.45,1.55,3.67.18,5.24-1.97,2.27-3.17,4.99-4.79,7.46-.2.3-.42.67-.41,1,.05,1.09-.22,2-1.01,2.81-.27.28-.41.89.24,1.11.81.28,2.32-.67,2.46-1.55.18-1.12.75-2.04,1.42-2.92,1.5-1.96,3.36-3.54,5.24-5.13,3.37-2.86,6.71-5.75,10.21-8.46,1.57-1.21,3.43-1.43,4.98-.31,1.27.92,2.65,1.54,3.98,2.31,2.55,1.47,4.62,3.54,6.85,5.41,3.51,2.96,7.22,5.72,10.39,9.05,3.38,3.55,6.64,7.23,9.07,11.55,2.49,4.42,4.54,9.02,5.94,13.9,1.28,4.47,2.23,9.01,2.74,13.63.06.52.22.93.78.93,2.05-.01,3.87.86,5.8,1.33,4.46,1.1,8.86,2.51,13.43,3.15.55.08,1.13.83,1.61.28.46-.53-.54-.64-.65-1.15-.42-1.89-1.45-3.54-2.32-5.22-2.62-5.09-4.95-10.33-7.93-15.26-1.74-2.88-3.57-5.67-5.48-8.43-1.27-1.84-2.83-3.45-4.3-5.13-1.34-1.52-1.54-3.56-.55-5.22.72-1.21,2.79-1.94,4.39-1.53,1.05.27,1.9.88,2.65,1.63,2.88,2.87,5.49,5.97,7.75,9.35,3.85,5.78,6.84,12.04,9.97,18.22,4.69,9.25,8.78,18.74,11.59,28.75.17.6.52,1.19.92,1.66,1.94,2.3,4.37,3.96,7.08,5.22.61.28,1.17.38,1.71-.24,2.03-2.3,3.91-4.69,4.89-7.65.57-1.71,1.58-3.3,1.45-5.22-.23-3.51-.51-7.01-1.21-10.46-1.44-7.07-3.55-13.94-6.31-20.6-1.64-3.95-3.44-7.86-5.83-11.41-3.93-5.84-8.72-10.95-13.96-15.64-4.34-3.89-8.72-7.72-13.15-11.5-4.63-3.95-9.73-7.18-14.76-10.5-6.28-4.14-13.01-7.53-19.97-10.43-5.75-2.4-11.51-4.59-17.96-4-3.49.32-6.65,1.16-9.31,3.59-2.89,2.65-5.7,5.36-7.9,8.66-1.46,2.18-4.1,2.68-6.12,1.35-.87-.57-1.26-1.52-1.86-2.44ZM188.75,235.13c1.62,1.42,3.45,2.21,4.78,3.65,1.39,1.49,2.33,3.26,3.41,4.97,3.71,5.87,4.88,12.19,3.53,18.88-1.84,9.12-6.96,15.76-15.74,19.29-7.41,2.98-14.7,2.6-21.81-1-4.41-2.23-7.77-5.56-10.35-9.8-2.34-3.86-3.4-8.01-3.74-12.43-.14-1.76-.21-3.56-1.45-5.02-.65-.77-1.18-1.62-1.53-2.57-.27-.72-.66-.83-1.47-.74-1.02.12-1.82.86-2.86.79-1.28-.09-1.57.66-1.39,1.75.29,1.8.59,3.6.89,5.4.86,5.07,2.25,9.97,4.79,14.47,4.2,7.45,9.92,13.44,17.39,17.68.88.5,1.75.89,2.85.6,4.72-1.25,9.53-2.06,14.35-2.82,8.61-1.35,17.27-2.34,25.99-2.59,5.25-.15,10.49-.1,15.74.24,6.51.41,13.03.77,19.47,1.79,7.52,1.19,15.01,2.57,22.52,3.84,9.31,1.58,18.62,3.16,27.76,5.55,4.87,1.27,9.8.69,14.71.87.27,0,.59.06.72-.25.14-.3-.09-.52-.28-.71-.48-.45-.78-1.01-.96-1.63-.78-2.66.74-4.93,3.8-5.5,3.26-.61,6.12-2.03,8.79-3.92.72-.51.89-.93.03-1.53-.78-.54-1.5-1.19-2.17-1.87-4.3-4.35-6.6-9.66-7.26-15.68-1.01-9.3.71-17.8,7.59-24.7,2.82-2.83,6.29-4.41,10.11-5.32,1.4-.33,2.8-.2,4.21.04,1.08.19,1.31-.2.95-1.24-.49-1.41-1.28-2.56-2.49-3.48-1.05-.8-1.99-1.75-2.9-2.71-1.96-2.07-1.87-2.04-3.58.37-2.53,3.56-5.2,7.01-8.48,9.94-5.6,5.01-11.85,8.61-19.51,9.23-.38.03-.93-.2-1.11.25-.17.43.36.68.59.99,4.43,5.81,5.7,12.13,2.48,18.84-4.34,9.03-11.81,14.28-21.42,16.56-9.18,2.18-18.02.67-26.58-2.97-4.22-1.8-8.03-4.2-11.5-7.26-3-2.65-4.71-5.93-5.46-9.67-1.02-5.07.3-9.76,3.26-13.99.25-.35.81-.67.59-1.14-.26-.55-.9-.29-1.37-.28-3.49.1-6.98-.21-10.27-1.27-9.02-2.91-16.21-8.47-21.99-15.91-.47-.61-.89-1.27-1.34-1.89-.39-.54-.8-.69-1.5-.35-3.43,1.65-6.87,3.3-10.81,4.26ZM230.21,189.89c-1.09,0-2.19-.05-3.28.01-.94.05-1.46.52-1.48,1.58-.03,1.78-.22,3.55-.3,5.33-.41,8.8-.9,17.6,1.28,26.27.4,1.6-.76,3.25-2.39,3.52-3.73.61-7.37.35-10.85-1.24-1.2-.55-2.39-1.13-3.58-1.71-.47-.23-.98-.51-1.25.17-.28.72-1.54,1.1-.8,2.2,2.45,3.66,4.84,7.32,8.38,10.14,5.57,4.42,11.57,7.3,18.9,6.96,7.46-.35,13.9-2.81,18.81-8.58,3.91-4.6,6.49-9.7,6.11-16.05-.3-4.96-1.68-9.53-4.24-13.7-5.78-9.43-14.01-14.83-25.32-14.9ZM265.15,205.99c.36-.73.58-1.17.8-1.61,1.34-2.75,2.81-5.43,4.82-7.76,3.11-3.6,6.41-7,10.77-9.11,1.31-.63,1.16-1.47.74-2.54-1.05-2.72-2.27-5.35-3.67-7.91-2.02-3.71-4.63-6.95-7.53-9.99-.66-.7-1.49-1.31-2.54-1-1.13.34-2.26.32-3.39.2-5.79-.62-11.54-.38-17.27.58-3.28.55-6.48,1.44-9.71,2.2-2.84.67-5.55,1.74-8.36,2.53-.85.24-1.79.42-1.95,1.61-.34,2.47-.75,4.94-1.11,7.41-.25,1.68-.16,1.78,1.56,1.75,2.83-.04,5.76-.34,8.44.46,3.21.96,6.45,1.93,9.49,3.46,5.9,2.97,10.88,6.96,14.68,12.39,1.57,2.24,2.83,4.65,4.22,7.33ZM269.78,219.58c.05,3.89.24,5.01,2.08,8.84,2.46,5.11,6.02,9.21,11.3,11.58,5.1,2.29,10.44,2.74,15.78,1.28,4.81-1.31,8.7-4.32,12.13-7.87,3.6-3.73,5.91-8.28,7.87-13.01.71-1.72,1.27-3.53,1.14-5.44-.04-.55-.05-1.23-.89-.98-1.39.42-2.71.07-4.05-.22-.91-.19-1.21.05-.83.99,1.43,3.5.76,6.72-1.49,9.63-2.54,3.28-5.95,4.45-9.95,3.51-3.74-.87-6.21-3.29-7.11-7.01-.93-3.84-.15-7.33,3-10.04.26-.22.76-.35.65-.77-.11-.4-.6-.33-.95-.42-2.45-.62-4.94-.83-7.46-.89-2.92-.08-5.52-2.17-4.68-5.57.04-.17.09-.38.04-.54-.74-2.46-.84-5.03-1.27-7.54-.16-.95-.6-1.18-1.39-.6-1.47,1.08-3.06,2.03-4.37,3.28-6.2,5.92-9.36,13.21-9.57,21.77ZM261.39,267.12c7.98-.15,15.08-2.05,21.97-4.84,2.43-.98,4.53-2.53,6.25-4.53.45-.52,1.07-1.04.57-1.91-1.61-2.79-3.85-5.04-6.52-6.69-4.18-2.58-8.78-3.98-13.7-4.68-8.56-1.23-16.38.21-23.47,5.27-3.27,2.34-5.85,5.14-6.92,9.13-.33,1.24-.19,2.1.95,2.92,1.46,1.05,3.01,1.86,4.61,2.62,5.32,2.53,11.06,2.41,16.26,2.7ZM243.81,271.99c1.74,1.88,3.81,2.95,5.83,4.03,4.25,2.29,8.87,3.48,13.62,4.25,3.18.52,6.38.57,9.52-.01,6.15-1.14,11.44-3.91,15.25-9.05.96-1.3,2.01-2.6,2.41-4.3-14.93,7.56-30.28,9.52-46.63,5.08ZM247.09,157.91c4.33-.69,8.43-.82,12.65-.97-1.58-1.92-3.65-3.11-5.64-4.39-.48-.31-.77.06-1.07.31-1.92,1.62-3.84,3.25-5.95,5.04ZM265.24,231.29c-1.47,2.66-2.97,4.95-4.8,7.35,3.28-.54,6.25-.15,9.5,0-1.82-2.39-3.41-4.63-4.7-7.35Z"/>
        <path d="M236.96,218.09c.06-5.54,4.47-9.79,10.05-9.69,5.22.1,9.45,4.55,9.43,9.91-.02,5.28-4.53,9.61-9.93,9.54-5.32-.07-9.61-4.46-9.55-9.77Z"/>
      </g>
    </g>
  </g>
</svg>