<?xml version="1.0" encoding="iso-8859-1"?>
<!-- Uploaded to: SVG Repo, www.svgrepo.com, Generator: SVG Repo Mixer Tools -->
<!DOCTYPE svg PUBLIC "-//W3C//DTD SVG 1.1//EN" "http://www.w3.org/Graphics/SVG/1.1/DTD/svg11.dtd">
<svg fill="#000000" version="1.1" id="Capa_1" xmlns="http://www.w3.org/2000/svg" xmlns:xlink="http://www.w3.org/1999/xlink" 
	 width="800px" height="800px" viewBox="0 0 89.322 89.322"
	 xml:space="preserve">
<g>
	<path d="M30.314,34.334h28.884c0.076,0.597,0.129,1.2,0.129,1.817c0,8.1-6.566,14.666-14.666,14.666
		c-8.1,0-14.666-6.566-14.666-14.666c0-0.624,0.058-1.233,0.139-1.836C30.196,34.318,30.25,34.334,30.314,34.334z M50.884,51.817
		H38.439c-10.354,0-18.778,8.424-18.778,18.778v15.223l0.039,0.236l1.05,0.328l13.723,2.939c9.673,0,10.499-36.609,10.499-36.609
		S44.075,89.322,55.47,89.322l13.106-3.008l0.979-0.498l0.105,0.001V70.596C69.661,60.241,61.237,51.817,50.884,51.817z
		 M64.788,27.341c0-2.478-3.689-1.188-5.461-0.428V0H29.995v26.992c-1.77-0.621-5.461-1.674-5.461,0.349c0,2.659,0,4.676,0,4.676
		h40.254C64.788,32.016,64.788,30.599,64.788,27.341z"/>
</g>
</svg>