<?xml version="1.0" encoding="UTF-8"?>
<svg id="_图层_3" data-name="图层 3" xmlns="http://www.w3.org/2000/svg" viewBox="0 0 556 219.5">
  <defs>
    <style>
      .cls-1 {
        fill: none;
        stroke: #000;
        stroke-miterlimit: 10;
      }
    </style>
  </defs>
  <circle class="cls-1" cx="285.43" cy="142.98" r="16.5"/>
  <path class="cls-1" d="m277.93,131.48h14.71c1.29,1,.71,3.25,0,3.62h-5.14v2.38c2.43,0,8.43,3,8.43,12h-3c-1-2-1-6-5-8h-1s0,13,0,13c-.58.58-1.16.82-1.74.73-.42-.07-.84-.31-1.26-.73v-13h-2s-4,2.35-4,7.67h-4s1-10.67,8-11.67v-3h-5c-1-1-.03-3-.02-3h1.02Z"/>
</svg>