<?xml version="1.0" encoding="UTF-8"?>
<svg id="_图层_4" data-name="图层 4" xmlns="http://www.w3.org/2000/svg" viewBox="0 0 556 243.15">
  <defs>
    <style>
      .cls-1 {
        fill: none;
        stroke: #000;
        stroke-miterlimit: 10;
      }
    </style>
  </defs>
  <path class="cls-1" d="m290.24,108.21l7.96,16.12c.78,1.58,2.29,2.68,4.04,2.93l17.79,2.58c4.4.64,6.16,6.05,2.97,9.15l-12.87,12.55c-1.26,1.23-1.84,3.01-1.54,4.75l3.04,17.72c.75,4.38-3.85,7.72-7.78,5.65l-15.91-8.37c-1.56-.82-3.43-.82-4.99,0l-15.91,8.37c-3.93,2.07-8.53-1.27-7.78-5.65l3.04-17.72c.3-1.74-.28-3.52-1.54-4.75l-12.87-12.55c-3.18-3.1-1.43-8.51,2.97-9.15l17.79-2.58c1.75-.25,3.26-1.35,4.04-2.93l7.96-16.12c1.97-3.99,7.65-3.99,9.62,0Z"/>
</svg>