<?xml version="1.0" encoding="UTF-8"?>
<svg xmlns="http://www.w3.org/2000/svg" version="1.1" viewBox="0 0 556 243.1">
  <defs>
    <style>
      .cls-1 {
        fill: none;
        stroke: #000;
        stroke-miterlimit: 10;
      }

      .cls-2 {
        isolation: isolate;
      }
    </style>
  </defs>
  <!-- Generator: Adobe Illustrator 28.7.3, SVG Export Plug-In . SVG Version: 1.2.0 Build 164)  -->
  <g>
    <g id="_图层_5">
      <rect class="cls-1" x="133.5" y="67.5" width="149" height="79" rx="24" ry="24"/>
      <g class="cls-2">
        <g class="cls-2">
          <path d="M210.7,123.3c-1.2.7-2.1.6-2.7-.4-.6-1-.3-1.9.9-2.6,4.7-2.9,7.6-7,8.6-12.4,0-.2,0-.3-.3-.3h-7.4c-1.4,0-2.1-.6-2.1-1.7s.7-1.6,2.1-1.6h7.9c.2,0,.3-.1.3-.3v-7c0-.2,0-.3-.2-.3h-6.8c-1.4,0-2.1-.6-2.1-1.7s.7-1.6,2.1-1.6h2.6c.2,0,.3,0,.2-.3-1.1-1.9-1.7-3.1-1.8-3.4-.4-1.3,0-2.2,1.1-2.4,1.1-.3,1.8.2,2.2,1.6.3.9.9,2.3,1.9,4.1.2.3.4.5.8.5h4c.4,0,.6-.2.8-.5.9-1.8,1.4-3,1.6-3.8.3-1.3,1-1.9,2.1-1.7,1.1.2,1.5,1,1.2,2.4-.1.5-.6,1.6-1.4,3.3-.1.2,0,.3.2.3h2.1c1.4,0,2.1.5,2.1,1.6s-.7,1.7-2.1,1.7h-6.5c-.2,0-.3.1-.3.3v7c0,.2,0,.3.3.3h7.8c1.4,0,2.1.5,2.1,1.6s-.7,1.7-2.1,1.7h-7.5c-.2,0-.3.1-.2.3.9,2.7,2.3,5.2,4.2,7.7,1.9,2.4,3.3,4,4.4,4.6,1.2.7,1.5,1.5,1,2.5-.6,1-1.5,1.1-2.6.3-3.6-2.3-6.5-6.1-8.6-11.3,0-.2-.2-.2-.2,0-.7,2.3-2,4.5-3.8,6.6-1.8,2.2-3.6,3.8-5.5,5Z"/>
          <path d="M241,121.9c-.6,1.3-1.4,1.7-2.5,1.2-1.1-.5-1.3-1.3-.8-2.6,1.4-3.2,2.3-6.5,2.6-9.8.1-1.4.7-2,1.9-1.9,1.1.1,1.6.9,1.4,2.2-.4,4.1-1.3,7.7-2.7,10.9ZM243.3,103c.5,1.3.3,2.1-.6,2.5-1,.4-1.7,0-2.3-1.3-.5-1.3-1.1-2.5-1.8-3.5-.8-1.2-.7-2,.1-2.6.8-.6,1.6-.3,2.4.8.9,1.2,1.6,2.6,2.2,4ZM243.8,92.9c.5,1.3.3,2.1-.7,2.5-1,.4-1.8,0-2.3-1.4-.6-1.5-1.1-2.6-1.7-3.5-.8-1.2-.7-2,.2-2.6.9-.6,1.7-.3,2.5.9.7,1.1,1.3,2.4,2,4ZM260.9,119c1.4,0,2.1.5,2.1,1.6s-.7,1.7-2.1,1.7h-14.9c-1.4,0-2.1-.6-2.1-1.7s.7-1.6,2.1-1.6h5.3c.2,0,.3-.1.3-.3v-9.7c0-.2-.1-.3-.3-.3h-3.5c-1.4,0-2.1-.6-2.1-1.7s.7-1.6,2.1-1.6h3.5c.2,0,.3-.1.3-.3v-8.4c0-.2,0-.3-.3-.3h-4c-1.4,0-2.1-.6-2.1-1.7s.7-1.6,2.1-1.6h3.7c.2,0,.3-.1.3-.3v-3c0-1.4.6-2.1,1.9-2.1s1.9.7,1.9,2.1v3c0,.2.1.3.3.3h4.3c1.4,0,2.1.5,2.1,1.6s-.7,1.7-2.1,1.7h-4.4c-.2,0-.3.1-.3.3v8.4c0,.2,0,.3.3.3h3.7c1.4,0,2.1.5,2.1,1.6s-.7,1.7-2.1,1.7h-3.7c-.2,0-.3.1-.3.3v9.7c0,.2.1.3.3.3h5.5Z"/>
        </g>
      </g>
      <line class="cls-1" x1="155.3" y1="104.7" x2="193.4" y2="104.7"/>
      <line class="cls-1" x1="174.4" y1="123.8" x2="174.4" y2="85.6"/>
    </g>
  </g>
</svg>