<svg id="svg" version="1.1" xmlns="http://www.w3.org/2000/svg" xmlns:xlink="http://www.w3.org/1999/xlink" width="400" height="216.75762439807383" viewBox="0, 0, 400,216.75762439807383"><g id="svgg"><path id="path0" d="M325.500 43.583 L 325.500 44.667 329.167 44.667 L 332.833 44.667 332.833 43.583 L 332.833 42.500 329.167 42.500 L 325.500 42.500 325.500 43.583 M335.833 48.917 L 335.833 55.333 337.333 55.333 L 338.833 55.333 338.833 52.833 L 338.833 50.333 340.333 50.333 L 341.833 50.333 341.833 49.083 L 341.833 47.833 340.333 47.833 L 338.833 47.833 338.833 45.167 L 338.833 42.500 337.333 42.500 L 335.833 42.500 335.833 48.917 M356.333 48.333 L 356.333 54.167 354.417 54.167 L 352.500 54.167 352.500 55.333 L 352.500 56.500 354.417 56.500 L 356.333 56.500 356.333 57.417 L 356.333 58.333 357.750 58.333 L 359.167 58.333 359.167 50.417 L 359.167 42.500 357.750 42.500 L 356.333 42.500 356.333 48.333 M347.308 42.921 C 343.907 43.852,343.088 47.983,345.917 49.938 C 347.703 51.172,351.767 51.103,353.035 49.817 C 353.192 49.658,353.458 49.428,353.626 49.306 C 354.069 48.984,354.667 47.468,354.667 46.668 C 354.667 43.798,350.973 41.917,347.308 42.921 M350.628 45.196 C 351.923 45.588,352.006 47.531,350.758 48.268 C 348.742 49.459,346.176 47.369,347.591 45.688 C 348.227 44.932,349.221 44.771,350.628 45.196 M322.867 46.625 L 322.917 47.750 329.042 47.794 L 335.167 47.837 335.167 46.669 L 335.167 45.500 328.992 45.500 L 322.818 45.500 322.867 46.625 M327.500 48.226 C 325.210 48.913,324.326 49.916,324.337 51.813 C 324.360 55.656,332.004 56.573,333.728 52.939 C 335.101 50.045,331.222 47.110,327.500 48.226 M330.626 50.693 C 331.846 51.447,330.892 53.000,329.209 53.000 C 327.800 53.000,326.815 52.175,327.155 51.280 C 327.564 50.205,329.349 49.904,330.626 50.693 M353.750 51.025 C 353.292 51.106,350.554 51.227,347.667 51.294 L 342.417 51.417 342.367 52.642 L 342.318 53.867 345.159 53.809 L 348.000 53.750 348.000 55.375 L 348.000 57.000 346.750 57.000 L 345.500 57.000 345.500 59.500 L 345.500 62.000 352.583 62.000 L 359.667 62.000 359.667 60.833 L 359.667 59.667 354.000 59.667 L 348.333 59.667 348.333 58.341 L 348.333 57.015 349.542 56.966 L 350.750 56.917 350.798 55.292 L 350.845 53.667 351.464 53.653 C 351.805 53.645,352.308 53.608,352.583 53.570 C 352.858 53.531,353.702 53.417,354.458 53.316 L 355.833 53.132 355.833 51.983 L 355.833 50.833 355.208 50.856 C 354.865 50.868,354.208 50.944,353.750 51.025 M77.688 52.861 C 77.563 53.061,77.283 53.544,77.064 53.935 C 76.846 54.326,76.180 55.480,75.584 56.500 C 74.988 57.519,74.500 58.412,74.500 58.484 C 74.500 58.556,74.350 58.751,74.167 58.917 C 73.983 59.083,73.833 59.278,73.833 59.350 C 73.833 59.462,72.003 62.730,71.509 63.500 C 71.274 63.866,69.908 66.218,69.380 67.167 C 69.252 67.396,69.003 67.808,68.826 68.083 C 68.649 68.358,68.451 68.696,68.387 68.833 C 68.275 69.075,65.975 72.736,65.713 73.092 C 65.642 73.188,65.490 73.432,65.375 73.633 C 65.260 73.835,65.073 74.165,64.958 74.367 C 64.844 74.568,64.690 74.812,64.618 74.908 C 64.545 75.005,63.928 75.983,63.248 77.083 C 62.568 78.183,61.949 79.158,61.872 79.250 C 61.796 79.342,61.550 79.754,61.325 80.166 C 61.100 80.578,60.858 80.990,60.787 81.082 C 60.716 81.175,60.445 81.587,60.186 82.000 C 59.926 82.412,59.366 83.296,58.940 83.964 C 58.515 84.631,58.167 85.215,58.167 85.262 C 58.167 85.309,58.089 85.438,57.994 85.549 C 57.730 85.856,56.500 87.806,56.500 87.917 C 56.500 87.970,56.422 88.105,56.327 88.215 C 56.045 88.545,54.871 90.418,54.494 91.140 C 54.302 91.509,54.037 91.900,53.906 92.009 C 53.774 92.118,53.667 92.311,53.667 92.437 C 53.667 92.563,53.610 92.667,53.541 92.667 C 53.472 92.667,53.230 93.023,53.002 93.458 C 52.775 93.894,52.487 94.355,52.363 94.484 C 52.240 94.613,52.067 94.876,51.979 95.068 C 51.773 95.517,51.585 95.824,50.624 97.283 C 50.189 97.943,49.833 98.527,49.833 98.581 C 49.833 98.636,49.756 98.771,49.661 98.882 C 49.334 99.262,48.167 101.152,48.167 101.300 C 48.167 101.382,48.017 101.584,47.833 101.750 C 47.650 101.916,47.498 102.134,47.496 102.234 C 47.494 102.335,47.130 102.954,46.687 103.611 C 45.757 104.991,46.038 104.904,47.260 103.432 C 49.370 100.893,53.094 98.112,57.000 96.160 C 59.491 94.915,61.760 94.082,65.607 92.999 C 66.634 92.709,66.834 92.589,67.068 92.123 C 67.217 91.826,67.787 90.882,68.336 90.025 C 68.885 89.168,69.333 88.433,69.333 88.393 C 69.333 88.353,69.483 88.158,69.667 87.962 C 69.850 87.765,70.000 87.505,70.000 87.385 C 70.000 87.265,70.059 87.167,70.131 87.167 C 70.203 87.167,70.484 86.754,70.756 86.251 C 71.028 85.747,71.306 85.334,71.375 85.334 C 71.444 85.334,71.500 85.235,71.500 85.115 C 71.500 84.995,71.631 84.747,71.792 84.564 C 72.188 84.112,72.490 83.642,72.608 83.292 C 72.772 82.802,72.947 82.962,73.155 83.792 C 73.264 84.227,73.461 85.015,73.593 85.542 C 74.072 87.451,74.375 88.604,74.684 89.693 C 74.858 90.303,75.000 90.950,75.000 91.130 C 75.000 91.686,75.334 91.768,77.750 91.810 C 80.373 91.856,83.583 92.170,86.641 92.680 C 89.033 93.080,88.888 93.125,88.589 92.074 C 88.460 91.621,88.232 90.763,88.083 90.167 C 87.934 89.571,87.704 88.702,87.572 88.235 C 87.441 87.769,87.334 87.281,87.336 87.152 C 87.337 87.023,87.192 86.429,87.014 85.833 C 86.835 85.237,86.577 84.300,86.441 83.750 C 86.304 83.200,86.067 82.262,85.914 81.667 C 85.761 81.071,85.603 80.396,85.563 80.167 C 85.523 79.938,85.384 79.412,85.255 79.000 C 85.125 78.587,84.899 77.725,84.753 77.083 C 84.606 76.442,84.344 75.392,84.171 74.750 C 83.998 74.108,83.739 73.115,83.595 72.542 C 83.084 70.505,82.790 69.404,82.494 68.417 C 82.330 67.867,82.155 67.229,82.106 67.000 C 81.964 66.344,81.038 62.873,80.776 62.021 C 80.646 61.597,80.414 60.762,80.260 60.167 C 79.792 58.352,78.967 55.400,78.583 54.167 C 78.455 53.754,78.327 53.235,78.300 53.013 C 78.234 52.479,77.968 52.413,77.688 52.861 M325.500 57.000 L 325.500 58.167 330.667 58.167 L 335.833 58.167 335.833 60.333 L 335.833 62.500 337.333 62.500 L 338.833 62.500 338.833 59.167 L 338.833 55.833 332.167 55.833 L 325.500 55.833 325.500 57.000 M104.667 81.247 L 104.667 100.994 105.042 101.070 C 106.356 101.340,109.028 102.031,109.586 102.247 C 110.277 102.513,107.700 102.497,105.458 102.221 L 104.667 102.124 104.667 113.062 L 104.667 124.000 111.000 124.000 L 117.333 124.000 117.333 92.750 L 117.333 61.500 111.000 61.500 L 104.667 61.500 104.667 81.247 M127.500 92.750 L 127.500 124.000 133.750 124.000 L 140.000 124.000 140.000 92.750 L 140.000 61.500 133.750 61.500 L 127.500 61.500 127.500 92.750 M150.333 67.000 L 150.333 72.500 156.583 72.500 L 162.833 72.500 162.833 67.000 L 162.833 61.500 156.583 61.500 L 150.333 61.500 150.333 67.000 M188.000 78.425 C 187.313 78.551,186.487 78.695,186.167 78.746 C 184.914 78.943,180.990 80.419,180.667 80.815 C 180.621 80.871,180.312 81.067,179.980 81.250 C 179.455 81.540,177.967 82.719,177.431 83.269 C 175.258 85.500,173.494 89.546,173.499 92.292 L 173.500 93.167 179.712 93.167 L 185.924 93.167 186.147 92.208 C 186.820 89.312,189.013 87.784,192.497 87.784 C 195.842 87.784,197.964 89.179,198.910 92.000 C 199.240 92.984,199.278 102.138,198.950 101.583 C 198.610 101.010,196.339 98.833,196.080 98.833 C 195.944 98.833,195.833 98.766,195.833 98.683 C 195.833 98.600,195.627 98.455,195.375 98.360 C 195.123 98.265,194.433 97.987,193.843 97.741 C 190.068 96.170,183.411 96.299,179.542 98.019 C 178.211 98.610,177.333 99.083,177.333 99.208 C 177.333 99.277,177.252 99.333,177.152 99.333 C 176.415 99.333,173.868 102.271,172.961 104.167 C 169.227 111.971,172.820 121.893,180.167 124.063 C 180.396 124.131,181.296 124.384,182.167 124.625 C 185.748 125.616,192.561 125.100,194.833 123.666 C 195.063 123.521,195.543 123.256,195.902 123.076 C 196.731 122.661,198.701 120.736,199.010 120.038 C 199.244 119.508,199.245 119.510,199.452 120.962 C 199.566 121.762,199.743 122.773,199.846 123.208 L 200.033 124.000 206.494 124.000 L 212.954 124.000 212.553 122.792 C 211.897 120.815,211.836 119.464,211.835 106.925 C 211.833 91.951,211.759 91.017,210.286 87.500 C 209.377 85.331,208.229 83.847,205.898 81.833 C 204.700 80.797,200.718 79.047,198.917 78.763 C 198.642 78.720,197.742 78.568,196.917 78.426 C 195.015 78.099,189.789 78.098,188.000 78.425 M242.833 78.563 C 240.160 79.270,237.799 80.699,236.373 82.474 C 236.030 82.901,235.713 83.287,235.667 83.333 C 235.562 83.438,235.025 84.397,234.639 85.167 C 234.350 85.743,234.347 85.713,234.340 82.542 L 234.333 79.333 228.000 79.333 L 221.667 79.333 221.667 101.667 L 221.667 124.000 228.000 124.000 L 234.333 124.000 234.333 110.375 L 234.333 96.749 234.726 95.166 C 235.825 90.739,238.294 88.315,241.963 88.062 C 245.697 87.804,247.734 89.228,248.653 92.740 C 248.992 94.032,249.000 94.408,249.000 109.031 L 249.000 124.000 255.256 124.000 L 261.512 124.000 261.444 107.708 C 261.407 98.748,261.359 91.304,261.337 91.167 C 261.316 91.029,261.184 90.467,261.043 89.917 C 260.903 89.367,260.729 88.654,260.657 88.333 C 260.364 87.025,258.925 83.833,258.629 83.833 C 258.558 83.833,258.500 83.737,258.500 83.619 C 258.500 83.377,256.711 81.466,255.859 80.797 C 255.366 80.411,254.122 79.749,252.583 79.056 C 250.516 78.123,245.462 77.868,242.833 78.563 M287.417 78.271 C 286.175 78.516,285.339 78.672,284.833 78.755 C 281.192 79.353,276.842 81.988,274.663 84.917 C 274.253 85.467,273.871 85.954,273.814 86.000 C 273.015 86.634,271.180 91.425,270.527 94.583 C 269.773 98.227,269.797 106.454,270.569 108.917 C 270.712 109.375,270.831 109.900,270.832 110.083 C 270.835 110.741,272.005 114.013,272.721 115.368 C 275.090 119.855,278.215 122.481,283.167 124.145 C 287.010 125.437,294.318 125.473,298.667 124.222 C 305.841 122.157,310.637 116.404,311.044 109.375 L 311.105 108.333 304.926 108.333 L 298.747 108.333 298.454 109.637 C 297.609 113.396,295.006 115.347,290.862 115.327 C 285.039 115.300,282.495 111.138,282.502 101.644 C 282.505 97.667,283.252 93.015,284.008 92.258 C 284.095 92.171,284.167 92.006,284.167 91.891 C 284.167 91.139,285.866 89.423,287.320 88.706 L 288.583 88.083 291.000 88.090 L 293.417 88.098 294.724 88.750 C 296.839 89.805,297.842 91.142,298.446 93.707 L 298.750 94.998 304.927 94.999 L 311.105 95.000 311.043 93.958 C 310.825 90.317,309.131 86.362,306.683 83.786 C 306.030 83.099,304.078 81.500,303.892 81.500 C 303.828 81.500,303.658 81.394,303.513 81.264 C 303.143 80.933,300.968 79.836,300.667 79.829 C 300.529 79.825,300.271 79.713,300.093 79.578 C 299.915 79.443,299.606 79.333,299.405 79.333 C 299.205 79.333,298.788 79.228,298.479 79.099 C 298.170 78.971,297.637 78.821,297.295 78.768 C 296.953 78.714,296.025 78.556,295.232 78.418 C 293.905 78.187,288.373 78.083,287.417 78.271 M334.283 78.423 C 333.659 78.548,332.909 78.687,332.616 78.734 C 326.939 79.642,321.561 84.367,319.413 90.333 C 317.546 95.518,317.151 104.198,318.525 109.833 C 318.625 110.246,318.765 110.846,318.835 111.167 C 318.905 111.487,319.165 112.275,319.412 112.917 C 319.659 113.558,319.905 114.230,319.959 114.410 C 320.094 114.859,321.370 117.070,321.534 117.139 C 321.607 117.169,321.667 117.271,321.667 117.365 C 321.667 117.603,323.179 119.460,323.948 120.168 C 324.710 120.869,326.626 122.333,326.780 122.333 C 326.841 122.333,327.009 122.432,327.154 122.552 C 327.536 122.869,330.099 123.939,331.167 124.228 C 338.471 126.202,347.043 125.060,351.994 121.452 C 353.573 120.302,356.333 117.300,356.333 116.734 C 356.333 116.666,356.435 116.491,356.559 116.346 C 357.063 115.759,358.500 111.502,358.500 110.598 C 358.500 110.361,357.830 110.333,352.083 110.333 L 345.667 110.333 345.667 110.695 C 345.667 112.860,342.845 115.365,339.887 115.825 C 334.829 116.612,331.335 113.447,330.509 107.333 C 330.404 106.554,330.294 105.748,330.265 105.542 L 330.213 105.167 344.752 105.167 L 359.292 105.167 359.396 104.646 C 359.826 102.493,359.152 94.805,358.314 92.316 C 358.141 91.803,358.000 91.267,358.000 91.127 C 358.000 90.986,357.888 90.657,357.751 90.394 C 357.614 90.131,357.498 89.804,357.493 89.667 C 357.489 89.529,357.132 88.763,356.701 87.964 C 354.192 83.316,350.781 80.503,345.940 79.090 C 345.402 78.933,344.802 78.776,344.606 78.742 C 341.652 78.222,341.048 78.168,338.353 78.182 C 336.621 78.192,334.952 78.290,334.283 78.423 M150.333 101.667 L 150.333 124.000 156.583 124.000 L 162.833 124.000 162.833 101.667 L 162.833 79.333 156.583 79.333 L 150.333 79.333 150.333 101.667 M341.460 87.934 C 344.512 89.070,346.029 91.489,346.647 96.208 L 346.772 97.167 338.553 97.167 C 331.803 97.167,330.333 97.127,330.333 96.944 C 330.333 92.955,332.484 89.123,335.333 88.037 C 336.874 87.449,340.014 87.396,341.460 87.934 M78.273 95.182 C 75.918 95.341,76.052 95.244,76.381 96.539 C 76.526 97.114,76.694 97.808,76.753 98.082 C 76.927 98.894,77.013 98.925,78.777 98.808 C 80.947 98.665,86.329 98.670,88.417 98.818 C 89.333 98.883,90.105 98.922,90.132 98.905 C 90.205 98.860,89.866 97.030,89.608 96.083 L 89.381 95.250 88.149 95.147 C 86.419 95.002,80.632 95.022,78.273 95.182 M90.000 102.613 C 87.989 102.758,82.629 103.574,80.250 104.097 C 79.608 104.239,78.921 104.387,78.723 104.426 C 78.377 104.496,78.372 104.527,78.586 105.291 C 78.911 106.445,79.437 108.423,79.750 109.667 C 79.899 110.263,80.129 111.132,80.261 111.598 C 80.392 112.064,80.499 112.552,80.498 112.681 C 80.496 112.811,80.640 113.404,80.817 114.000 C 81.461 116.165,81.667 116.952,81.669 117.265 C 81.670 117.440,81.781 117.898,81.915 118.282 C 82.049 118.667,82.200 119.215,82.250 119.500 C 82.300 119.785,82.451 120.333,82.585 120.718 C 82.719 121.102,82.830 121.551,82.831 121.716 C 82.832 121.880,82.965 122.461,83.125 123.007 L 83.417 124.000 90.042 124.000 C 93.774 124.000,96.667 123.936,96.667 123.852 C 96.667 123.771,96.560 123.340,96.430 122.894 C 96.104 121.775,95.747 120.393,95.251 118.333 C 95.019 117.371,94.678 116.058,94.494 115.417 C 94.310 114.775,94.096 113.912,94.018 113.500 C 93.939 113.087,93.670 112.000,93.420 111.083 C 93.169 110.167,92.908 109.154,92.840 108.833 C 92.772 108.513,92.625 107.912,92.513 107.500 C 92.402 107.087,92.160 106.188,91.976 105.500 C 91.275 102.881,91.144 102.501,90.950 102.529 C 90.840 102.545,90.412 102.583,90.000 102.613 M193.667 105.409 C 197.651 105.988,199.213 107.539,199.213 110.917 C 199.213 113.466,198.409 114.773,196.247 115.740 C 193.447 116.993,188.015 116.742,186.217 115.277 C 183.700 113.226,183.296 109.835,185.276 107.383 C 186.673 105.655,189.990 104.874,193.667 105.409 M180.000 141.754 C 175.919 142.542,174.087 146.085,174.400 152.583 C 174.684 158.468,177.186 161.343,182.011 161.331 C 184.625 161.324,188.500 159.410,188.500 158.126 C 188.500 158.025,188.608 157.824,188.739 157.678 C 188.871 157.533,189.021 157.227,189.073 156.999 C 189.783 153.875,189.942 154.142,187.406 154.203 L 185.424 154.250 185.237 155.092 C 184.481 158.504,179.972 158.645,178.900 155.291 C 178.155 152.961,178.490 147.678,179.465 146.378 C 181.166 144.109,184.770 144.995,185.244 147.797 L 185.363 148.500 187.489 148.500 L 189.616 148.500 189.469 147.562 C 189.388 147.046,189.247 146.483,189.155 146.312 C 189.063 146.140,189.030 146.000,189.080 146.000 C 189.339 146.000,188.214 144.210,187.523 143.523 C 185.819 141.828,183.023 141.170,180.000 141.754 M252.250 141.732 C 249.957 142.155,247.969 143.828,247.359 145.847 C 247.264 146.160,247.058 146.754,246.900 147.167 C 246.533 148.127,246.473 154.286,246.818 155.500 C 247.924 159.381,250.378 161.327,254.167 161.328 C 255.917 161.328,259.000 160.373,259.000 159.830 C 259.000 159.740,259.094 159.664,259.208 159.662 C 259.754 159.648,261.034 157.393,261.509 155.606 C 261.960 153.911,261.967 148.952,261.520 147.233 C 260.381 142.847,257.019 140.853,252.250 141.732 M112.611 141.944 C 112.550 142.006,112.500 146.281,112.500 151.444 L 112.500 160.833 118.583 160.833 L 124.667 160.833 124.667 159.167 L 124.667 157.500 120.750 157.500 L 116.833 157.500 116.833 155.253 L 116.833 153.007 120.208 152.962 L 123.583 152.917 123.631 151.208 L 123.678 149.500 120.256 149.500 L 116.833 149.500 116.833 147.417 L 116.833 145.333 120.667 145.333 L 124.500 145.333 124.500 143.583 L 124.500 141.833 118.611 141.833 C 115.372 141.833,112.672 141.883,112.611 141.944 M131.500 151.331 L 131.500 160.852 136.375 160.801 L 141.250 160.750 142.212 160.278 C 145.062 158.879,146.000 156.660,146.000 151.320 C 146.000 145.875,144.934 143.676,141.631 142.304 C 140.812 141.964,140.427 141.934,136.125 141.874 L 131.500 141.810 131.500 151.331 M152.838 148.292 C 152.843 156.525,153.018 157.501,154.813 159.316 C 158.184 162.724,164.846 161.759,166.861 157.571 L 167.417 156.417 167.469 149.125 L 167.522 141.833 165.428 141.833 L 163.333 141.833 163.333 148.525 L 163.333 155.217 162.911 156.067 C 161.792 158.320,158.651 158.309,157.518 156.048 C 157.178 155.369,157.167 155.130,157.167 148.590 L 157.167 141.833 155.000 141.833 L 152.833 141.833 152.838 148.292 M200.608 142.543 C 200.457 142.938,200.333 143.342,200.333 143.442 C 200.333 143.541,200.193 143.988,200.023 144.436 C 199.852 144.884,199.581 145.700,199.422 146.250 C 199.262 146.800,199.054 147.438,198.959 147.667 C 198.864 147.896,198.727 148.346,198.655 148.667 C 198.583 148.987,198.302 149.887,198.032 150.667 C 197.762 151.446,197.260 152.983,196.917 154.083 C 196.574 155.183,196.196 156.346,196.077 156.667 C 195.758 157.529,194.833 160.517,194.833 160.687 C 194.833 160.767,195.791 160.833,196.960 160.833 L 199.087 160.833 199.387 159.708 C 199.552 159.090,199.769 158.302,199.870 157.958 L 200.053 157.333 203.090 157.333 L 206.126 157.333 206.291 157.792 C 206.529 158.455,206.847 159.665,206.949 160.292 L 207.036 160.833 209.286 160.833 C 211.019 160.833,211.517 160.785,211.453 160.625 C 211.142 159.845,210.798 158.825,210.258 157.083 C 209.916 155.983,209.541 154.821,209.423 154.500 C 209.306 154.179,209.096 153.542,208.956 153.083 C 208.405 151.271,207.445 148.219,207.253 147.667 C 206.941 146.773,206.482 145.332,206.411 145.025 C 206.375 144.874,206.130 144.112,205.865 143.333 L 205.383 141.917 203.132 141.870 L 200.882 141.824 200.608 142.543 M215.167 143.583 L 215.167 145.333 217.667 145.333 L 220.167 145.333 220.167 153.083 L 220.167 160.833 222.250 160.833 L 224.333 160.833 224.333 153.083 L 224.333 145.333 226.833 145.333 L 229.333 145.333 229.333 143.583 L 229.333 141.833 222.250 141.833 L 215.167 141.833 215.167 143.583 M235.500 151.333 L 235.500 160.833 237.583 160.833 L 239.667 160.833 239.667 151.333 L 239.667 141.833 237.583 141.833 L 235.500 141.833 235.500 151.333 M268.833 151.333 L 268.833 160.833 270.914 160.833 L 272.996 160.833 273.039 155.220 L 273.083 149.607 274.167 151.812 C 274.762 153.026,276.000 155.533,276.917 157.384 L 278.583 160.750 280.792 160.797 L 283.000 160.843 283.000 151.338 L 283.000 141.833 280.836 141.833 L 278.671 141.833 278.627 147.524 L 278.583 153.215 277.976 151.983 C 277.642 151.305,276.378 148.744,275.168 146.292 L 272.966 141.833 270.900 141.833 L 268.833 141.833 268.833 151.333 M255.850 145.512 C 258.455 147.367,258.436 155.910,255.823 157.292 C 253.856 158.332,251.746 157.405,251.053 155.197 C 250.393 153.090,250.686 148.011,251.554 146.533 C 252.334 145.204,254.646 144.654,255.850 145.512 M139.668 145.544 C 141.296 146.117,142.157 148.663,141.936 152.250 C 141.672 156.536,140.856 157.493,137.458 157.497 L 135.500 157.500 135.500 151.417 L 135.500 145.333 137.292 145.336 C 138.280 145.337,139.346 145.431,139.668 145.544 M203.667 148.485 C 203.667 148.753,204.097 150.271,204.438 151.212 C 204.564 151.558,204.739 152.164,204.828 152.559 C 204.916 152.954,205.037 153.402,205.096 153.555 C 205.192 153.806,204.997 153.833,203.126 153.833 L 201.049 153.833 201.274 152.958 C 201.398 152.477,201.608 151.746,201.741 151.333 C 201.873 150.921,202.228 149.710,202.530 148.643 L 203.079 146.702 203.372 147.476 C 203.534 147.902,203.666 148.356,203.667 148.485 " stroke="none" fill="#2c346c" fill-rule="evenodd"></path><path id="path1" d="M293.833 45.000 L 293.833 47.500 292.250 47.500 L 290.667 47.500 290.667 48.833 L 290.667 50.167 292.250 50.167 L 293.833 50.167 293.833 53.667 L 293.833 57.167 295.250 57.167 L 296.667 57.167 296.667 49.833 L 296.667 42.500 295.250 42.500 L 293.833 42.500 293.833 45.000 M302.000 46.750 L 302.000 50.500 308.500 50.500 L 315.000 50.500 315.000 46.750 L 315.000 43.000 308.500 43.000 L 302.000 43.000 302.000 46.750 M257.500 51.917 L 257.500 60.333 259.000 60.333 L 260.500 60.333 260.500 51.917 L 260.500 43.500 259.000 43.500 L 257.500 43.500 257.500 51.917 M263.125 43.594 C 263.056 43.665,263.000 47.460,263.000 52.028 L 263.000 60.333 266.844 60.333 C 272.531 60.333,274.672 58.943,274.665 55.256 C 274.662 53.643,273.054 51.333,271.933 51.333 C 271.560 51.333,271.758 51.020,272.250 50.833 C 275.002 49.787,274.024 44.883,270.871 43.919 C 269.851 43.607,263.378 43.336,263.125 43.594 M281.333 44.750 L 281.333 46.000 284.167 46.000 L 287.000 46.000 287.000 46.386 C 287.000 47.966,283.969 50.991,280.708 52.666 C 279.820 53.122,279.820 53.125,280.875 54.257 L 281.750 55.196 282.930 54.596 C 283.579 54.266,284.770 53.467,285.576 52.820 L 287.042 51.644 287.551 52.114 C 287.831 52.372,288.215 52.738,288.405 52.927 C 289.771 54.287,291.113 54.887,291.631 54.369 C 292.560 53.440,293.066 52.500,292.637 52.500 C 292.363 52.500,290.333 51.161,290.333 50.980 C 290.333 50.900,290.258 50.833,290.167 50.833 C 290.075 50.833,289.694 50.527,289.319 50.152 L 288.638 49.471 289.218 48.277 C 289.935 46.803,290.276 45.704,290.404 44.458 L 290.503 43.500 285.918 43.500 L 281.333 43.500 281.333 44.750 M312.000 46.667 L 312.000 48.000 308.417 48.000 L 304.833 48.000 304.833 46.667 L 304.833 45.333 308.417 45.333 L 312.000 45.333 312.000 46.667 M269.475 46.326 C 270.900 46.735,271.328 48.372,270.284 49.416 C 269.613 50.087,268.794 50.331,267.208 50.332 L 266.000 50.333 266.000 48.250 L 266.000 46.167 267.459 46.167 C 268.262 46.167,269.169 46.239,269.475 46.326 M298.833 53.167 L 298.833 54.333 303.083 54.333 L 307.333 54.333 307.333 56.167 L 307.333 58.000 308.833 58.000 L 310.333 58.000 310.333 56.167 L 310.333 54.333 314.083 54.333 L 317.833 54.333 317.833 53.167 L 317.833 52.000 308.333 52.000 L 298.833 52.000 298.833 53.167 M270.000 52.902 C 270.853 53.344,271.303 53.936,271.430 54.784 C 271.750 56.918,270.427 58.000,267.497 58.000 L 266.000 58.000 266.000 55.231 L 266.000 52.462 267.708 52.531 C 268.924 52.580,269.585 52.687,270.000 52.902 M284.167 58.917 L 284.167 62.000 290.583 62.000 L 297.000 62.000 297.000 60.833 L 297.000 59.667 292.000 59.667 L 287.000 59.667 287.000 57.750 L 287.000 55.833 285.583 55.833 L 284.167 55.833 284.167 58.917 M301.833 59.000 L 301.833 62.167 308.667 62.167 L 315.500 62.167 315.500 60.917 L 315.500 59.667 310.083 59.667 L 304.667 59.667 304.667 57.750 L 304.667 55.833 303.250 55.833 L 301.833 55.833 301.833 59.000 M74.000 91.771 C 70.159 92.109,66.707 92.598,66.500 92.832 C 66.454 92.884,65.540 93.165,64.468 93.457 C 57.082 95.468,50.793 99.283,46.679 104.250 C 45.424 105.765,44.923 106.500,45.145 106.500 C 45.229 106.500,45.343 106.383,45.398 106.239 C 45.453 106.096,45.567 106.022,45.651 106.074 C 45.736 106.126,45.830 106.111,45.861 106.041 C 46.056 105.597,49.705 103.204,51.917 102.070 C 52.742 101.647,53.492 101.247,53.583 101.180 C 53.734 101.071,54.896 100.580,57.250 99.632 C 57.708 99.447,58.330 99.192,58.631 99.065 C 58.932 98.937,59.285 98.833,59.417 98.833 C 59.548 98.833,59.902 98.730,60.203 98.604 C 60.504 98.478,61.313 98.209,62.000 98.005 C 62.688 97.801,63.512 97.554,63.833 97.455 C 64.154 97.355,64.717 97.222,65.083 97.159 C 65.450 97.096,66.087 96.963,66.500 96.864 C 69.350 96.179,73.704 95.496,75.194 95.498 C 75.714 95.499,76.165 95.422,76.196 95.327 C 76.279 95.079,83.533 94.860,86.667 95.012 C 89.434 95.145,91.836 95.352,95.167 95.744 C 99.071 96.203,99.130 96.206,98.750 95.911 C 98.567 95.769,98.229 95.613,98.000 95.566 C 97.771 95.518,97.337 95.372,97.036 95.240 C 96.735 95.108,96.389 95.000,96.267 95.000 C 96.144 95.000,95.678 94.858,95.231 94.685 C 93.823 94.139,89.578 93.128,88.763 93.144 C 88.587 93.147,87.923 93.041,87.288 92.907 C 85.141 92.455,80.766 92.010,78.026 91.964 C 76.528 91.938,75.267 91.861,75.225 91.792 C 75.182 91.723,75.020 91.679,74.865 91.693 C 74.710 91.708,74.321 91.743,74.000 91.771 M75.417 99.023 C 74.958 99.095,73.876 99.234,73.012 99.331 C 72.148 99.428,70.986 99.615,70.429 99.747 C 69.872 99.878,68.817 100.111,68.083 100.265 C 66.432 100.611,63.079 101.597,62.445 101.924 C 62.185 102.057,61.848 102.167,61.695 102.167 C 61.542 102.168,61.171 102.318,60.871 102.501 C 60.571 102.684,60.245 102.833,60.146 102.833 C 59.982 102.833,59.648 102.964,58.250 103.577 C 57.229 104.025,54.054 105.639,53.201 106.144 C 52.716 106.432,52.289 106.667,52.252 106.667 C 52.093 106.667,47.352 109.945,47.083 110.241 C 46.992 110.342,46.354 110.883,45.667 111.442 C 44.414 112.461,41.688 115.199,40.750 116.380 C 40.475 116.726,40.081 117.199,39.874 117.431 C 39.546 117.799,39.012 118.562,37.970 120.155 C 37.393 121.036,36.006 123.659,36.002 123.875 C 36.001 123.944,38.473 124.000,41.496 124.000 L 46.992 124.000 47.276 123.542 C 47.432 123.290,47.644 123.008,47.747 122.917 C 47.850 122.825,48.165 122.412,48.448 122.000 C 48.730 121.587,49.382 120.812,49.897 120.277 C 50.412 119.741,50.833 119.276,50.833 119.243 C 50.833 119.173,51.659 118.333,51.727 118.333 C 51.753 118.333,52.208 117.922,52.739 117.420 C 53.270 116.918,54.071 116.227,54.519 115.886 C 54.967 115.544,55.333 115.205,55.333 115.132 C 55.333 115.060,55.416 115.000,55.518 115.000 C 55.670 115.000,56.727 114.246,57.618 113.502 C 57.729 113.409,57.854 113.333,57.897 113.333 C 57.939 113.333,58.486 112.988,59.112 112.566 C 59.738 112.145,60.400 111.731,60.583 111.648 C 60.767 111.565,61.217 111.312,61.583 111.087 C 62.506 110.520,66.668 108.488,68.083 107.914 C 68.725 107.653,69.321 107.379,69.408 107.303 C 69.495 107.228,69.703 107.167,69.869 107.167 C 70.035 107.167,70.301 107.093,70.461 107.003 C 70.803 106.810,74.024 105.740,75.333 105.385 C 75.837 105.248,76.700 105.021,77.250 104.880 C 77.800 104.740,78.334 104.558,78.436 104.477 C 78.826 104.168,83.891 103.225,87.667 102.759 C 90.861 102.364,94.093 102.250,102.042 102.250 C 106.052 102.250,109.333 102.240,109.333 102.228 C 109.333 102.216,108.452 102.004,107.375 101.757 C 106.298 101.510,105.189 101.210,104.912 101.091 C 103.847 100.633,97.521 99.583,92.917 99.098 C 90.374 98.831,76.996 98.773,75.417 99.023 " stroke="none" fill="#c3141c" fill-rule="evenodd"></path><path id="path2" d="" stroke="none" fill="#723454" fill-rule="evenodd"></path><path id="path3" d="M86.375 98.782 C 86.535 98.823,86.798 98.823,86.958 98.782 C 87.119 98.740,86.987 98.705,86.667 98.705 C 86.346 98.705,86.215 98.740,86.375 98.782 M89.875 102.615 C 90.035 102.657,90.298 102.657,90.458 102.615 C 90.619 102.573,90.487 102.539,90.167 102.539 C 89.846 102.539,89.715 102.573,89.875 102.615 " stroke="none" fill="#5a345c" fill-rule="evenodd"></path><path id="path4" d="M77.625 91.955 C 78.015 91.990,78.652 91.990,79.042 91.955 C 79.431 91.920,79.112 91.892,78.333 91.892 C 77.554 91.892,77.235 91.920,77.625 91.955 M83.295 94.954 C 83.594 94.991,84.044 94.990,84.295 94.952 C 84.545 94.914,84.300 94.884,83.750 94.885 C 83.200 94.886,82.995 94.917,83.295 94.954 M78.042 95.115 C 78.202 95.157,78.465 95.157,78.625 95.115 C 78.785 95.073,78.654 95.039,78.333 95.039 C 78.012 95.039,77.881 95.073,78.042 95.115 M82.300 98.791 C 83.060 98.822,84.260 98.822,84.966 98.790 C 85.672 98.759,85.050 98.734,83.583 98.734 C 82.117 98.734,81.539 98.760,82.300 98.791 M106.708 102.282 C 106.869 102.323,107.131 102.323,107.292 102.282 C 107.452 102.240,107.321 102.205,107.000 102.205 C 106.679 102.205,106.548 102.240,106.708 102.282 M109.167 102.333 C 108.979 102.454,109.063 102.495,109.500 102.495 C 109.937 102.495,110.021 102.454,109.833 102.333 C 109.696 102.244,109.546 102.172,109.500 102.172 C 109.454 102.172,109.304 102.244,109.167 102.333 " stroke="none" fill="#7c304c" fill-rule="evenodd"></path></g></svg>